<svg width="30" height="30" viewBox="0 0 30 30" fill="none" xmlns="http://www.w3.org/2000/svg">
<path d="M14.8938 7.31814C10.7678 7.31814 7.43972 10.6468 7.43972 14.7736C7.43972 18.9004 10.7678 22.2291 14.8938 22.2291C19.0198 22.2291 22.3478 18.9004 22.3478 14.7736C22.3478 10.6468 19.0198 7.31814 14.8938 7.31814ZM14.8938 19.6207C12.2274 19.6207 10.0477 17.447 10.0477 14.7736C10.0477 12.1003 12.221 9.92658 14.8938 9.92658C17.5666 9.92658 19.7399 12.1003 19.7399 14.7736C19.7399 17.447 17.5601 19.6207 14.8938 19.6207ZM24.3914 7.01317C24.3914 7.97998 23.6129 8.75213 22.6528 8.75213C21.6861 8.75213 20.9141 7.97349 20.9141 7.01317C20.9141 6.05285 21.6926 5.27421 22.6528 5.27421C23.6129 5.27421 24.3914 6.05285 24.3914 7.01317ZM29.3283 8.77809C29.218 6.44866 28.6861 4.38526 26.9799 2.68523C25.2802 0.985194 23.2172 0.453123 20.8882 0.336327C18.4878 0.200065 11.2933 0.200065 8.89291 0.336327C6.57041 0.446635 4.50741 0.978706 2.80121 2.67874C1.09502 4.37877 0.569537 6.44217 0.452763 8.7716C0.316527 11.1724 0.316527 18.3683 0.452763 20.7691C0.563049 23.0986 1.09502 25.162 2.80121 26.862C4.50741 28.562 6.56392 29.0941 8.89291 29.2109C11.2933 29.3472 18.4878 29.3472 20.8882 29.2109C23.2172 29.1006 25.2802 28.5685 26.9799 26.862C28.6796 25.162 29.2115 23.0986 29.3283 20.7691C29.4646 18.3683 29.4646 11.1789 29.3283 8.77809ZM26.2273 23.3452C25.7213 24.6169 24.7417 25.5967 23.4637 26.1093C21.5499 26.8685 17.0087 26.6933 14.8938 26.6933C12.7789 26.6933 8.23119 26.862 6.32389 26.1093C5.05235 25.6032 4.07275 24.6234 3.56024 23.3452C2.80121 21.431 2.97637 16.8889 2.97637 14.7736C2.97637 12.6583 2.8077 8.10975 3.56024 6.20209C4.06626 4.93031 5.04586 3.95052 6.32389 3.43791C8.23768 2.67874 12.7789 2.85393 14.8938 2.85393C17.0087 2.85393 21.5564 2.68523 23.4637 3.43791C24.7352 3.94403 25.7148 4.92382 26.2273 6.20209C26.9864 8.11624 26.8112 12.6583 26.8112 14.7736C26.8112 16.8889 26.9864 21.4375 26.2273 23.3452Z" fill="white"/>
</svg>
