<svg width="52" height="31" viewBox="0 0 52 31" fill="none" xmlns="http://www.w3.org/2000/svg">
<path d="M50.9134 4.85045C50.3154 2.94121 48.5533 1.43754 46.3161 0.927255C42.2609 0 26 0 26 0C26 0 9.73923 0 5.68394 0.927255C3.44668 1.43762 1.68463 2.94121 1.08659 4.85045C0 8.31107 0 15.5313 0 15.5313C0 15.5313 0 22.7516 1.08659 26.2122C1.68463 28.1214 3.44668 29.5625 5.68394 30.0727C9.73923 31 26 31 26 31C26 31 42.2608 31 46.3161 30.0727C48.5533 29.5625 50.3154 28.1214 50.9134 26.2122C52 22.7516 52 15.5313 52 15.5313C52 15.5313 52 8.31107 50.9134 4.85045ZM20.6818 22.0868V8.97587L34.2726 15.5315L20.6818 22.0868Z" fill="#E70A03"/>
</svg>
