<svg width="36" height="26" viewBox="0 0 36 26" fill="none" xmlns="http://www.w3.org/2000/svg">
<path d="M34.7137 4.21717C34.306 2.68208 33.1046 1.47309 31.5792 1.0628C28.8143 0.317261 17.7273 0.317261 17.7273 0.317261C17.7273 0.317261 6.64039 0.317261 3.87542 1.0628C2.35001 1.47316 1.14862 2.68208 0.740858 4.21717C0 6.99961 0 12.8049 0 12.8049C0 12.8049 0 18.6102 0.740858 21.3927C1.14862 22.9278 5.40082 24.0864 3.87542 24.4967C1.11044 25.2422 17.7273 25.2422 17.7273 25.2422C17.7273 25.2422 28.8142 25.2422 31.5792 24.4967C33.1046 24.0864 34.306 22.9278 34.7137 21.3927C35.4546 18.6102 35.4546 12.8049 35.4546 12.8049C35.4546 12.8049 35.4546 6.99961 34.7137 4.21717ZM14.1012 18.0757V7.53414L23.3677 12.8051L14.1012 18.0757Z" fill="white"/>
</svg>
